<svg width="35" height="32" viewBox="0 0 35 32" fill="none" xmlns="http://www.w3.org/2000/svg">
<g filter="url(#filter0_d_3_3)">
<path fill-rule="evenodd" clip-rule="evenodd" d="M3.2 11.7C3.2 11.3023 3.35801 10.9208 3.63929 10.6395C3.92056 10.3583 4.30205 10.2003 4.69983 10.2003H22.0769L15.6366 3.76345C15.355 3.48184 15.1968 3.09989 15.1968 2.70164C15.1968 2.30338 15.355 1.92144 15.6366 1.63983C15.9182 1.35822 16.3002 1.20001 16.6985 1.20001C17.0968 1.20001 17.4787 1.35822 17.7604 1.63983L26.7594 10.6382C26.899 10.7775 27.0099 10.943 27.0855 11.1252C27.1611 11.3074 27.2 11.5027 27.2 11.7C27.2 11.8973 27.1611 12.0926 27.0855 12.2748C27.0099 12.457 26.899 12.6225 26.7594 12.7618L17.7604 21.7602C17.4787 22.0418 17.0968 22.2 16.6985 22.2C16.3002 22.2 15.9182 22.0418 15.6366 21.7602C15.355 21.4786 15.1968 21.0966 15.1968 20.6984C15.1968 20.3001 15.355 19.9182 15.6366 19.6366L22.0769 13.1997H4.69983C4.30205 13.1997 3.92056 13.0417 3.63929 12.7605C3.35801 12.4792 3.2 12.0978 3.2 11.7Z" fill="black"/>
</g>
<defs>
<filter id="filter0_d_3_3" x="-2.86102e-06" y="1.23978e-05" width="34.4" height="31.4" filterUnits="userSpaceOnUse" color-interpolation-filters="sRGB">
<feFlood flood-opacity="0" result="BackgroundImageFix"/>
<feColorMatrix in="SourceAlpha" type="matrix" values="0 0 0 0 0 0 0 0 0 0 0 0 0 0 0 0 0 0 127 0" result="hardAlpha"/>
<feOffset dx="2" dy="4"/>
<feGaussianBlur stdDeviation="2.6"/>
<feComposite in2="hardAlpha" operator="out"/>
<feColorMatrix type="matrix" values="0 0 0 0 0 0 0 0 0 0 0 0 0 0 0 0 0 0 0.05 0"/>
<feBlend mode="normal" in2="BackgroundImageFix" result="effect1_dropShadow_3_3"/>
<feBlend mode="normal" in="SourceGraphic" in2="effect1_dropShadow_3_3" result="shape"/>
</filter>
</defs>
</svg>
